HIERARCHY
ROOT hip
{
  OFFSET 0 0 0
  CHANNELS 6 Xposition Yposition Zposition Zrotation Yrotation Xrotation
  JOINT abdomen
  {
    OFFSET 0 20.6881 -0.73152
    CHANNELS 3 Zrotation Xrotation Yrotation
    JOINT chest
    {
      OFFSET 0 11.7043 -0.48768
      CHANNELS 3 Zrotation Xrotation Yrotation
      JOINT neck
      {
        OFFSET 0 22.1894 -2.19456
        CHANNELS 3 Zrotation Xrotation Yrotation
        JOINT head
        {
          OFFSET -0.24384 7.07133 1.2192
          CHANNELS 3 Zrotation Xrotation Yrotation
          JOINT leftEye
          {
            OFFSET 4.14528 8.04674 8.04672
            CHANNELS 3 Zrotation Xrotation Yrotation
            End Site
            {
              OFFSET 1 0 0
            }
          }
          JOINT rightEye
          {
            OFFSET -3.6576 8.04674 8.04672
            CHANNELS 3 Zrotation Xrotation Yrotation
            End Site
            {
              OFFSET 1 0 0
            }
          }
        }
      }
      JOINT rCollar
      {
        OFFSET -2.68224 19.2634 -4.8768
        CHANNELS 3 Zrotation Xrotation Yrotation
        JOINT rShldr
        {
          OFFSET -8.77824 -1.95073 1.46304
          CHANNELS 3 Zrotation Xrotation Yrotation
          JOINT rForeArm
          {
            OFFSET -28.1742 -1.7115 0.48768
            CHANNELS 3 Zrotation Xrotation Yrotation
            JOINT rHand
            {
              OFFSET -22.5879 0.773209 7.07136
              CHANNELS 3 Zrotation Xrotation Yrotation
              JOINT rThumb1
              {
                OFFSET -1.2192 -0.487915 3.41376
                CHANNELS 3 Zrotation Xrotation Yrotation
                JOINT rThumb2
                {
                  OFFSET -3.37035 -0.52449 3.41376
                  CHANNELS 3 Zrotation Xrotation Yrotation
                  End Site
                  {
                    OFFSET -1.78271 -1.18214 1.43049
                  }
                }
              }
              JOINT rIndex1
              {
                OFFSET -7.75947 0.938293 5.60832
                CHANNELS 3 Zrotation Xrotation Yrotation
                JOINT rIndex2
                {
                  OFFSET -2.54057 -0.884171 1.56538
                  CHANNELS 3 Zrotation Xrotation Yrotation
                  End Site
                  {
                    OFFSET -1.62519 -0.234802 1.16502
                  }
                }
              }
              JOINT rMid1
              {
                OFFSET -8.24714 1.18213 3.41376
                CHANNELS 3 Zrotation Xrotation Yrotation
                JOINT rMid2
                {
                  OFFSET -3.10165 -0.590103 1.0647
                  CHANNELS 3 Zrotation Xrotation Yrotation
                  End Site
                  {
                    OFFSET -2.48547 -0.328903 0.83742
                  }
                }
              }
              JOINT rRing1
              {
                OFFSET -8.82822 0.546677 1.51678
                CHANNELS 3 Zrotation Xrotation Yrotation
                JOINT rRing2
                {
                  OFFSET -2.60934 -0.819778 -0.0198488
                  CHANNELS 3 Zrotation Xrotation Yrotation
                  End Site
                  {
                    OFFSET -2.33842 -0.294052 0.168128
                  }
                }
              }
              JOINT rPinky1
              {
                OFFSET -8.27202 -0.0477905 -0.4584
                CHANNELS 3 Zrotation Xrotation Yrotation
                JOINT rPinky2
                {
                  OFFSET -1.82734 -0.647385 -0.700984
                  CHANNELS 3 Zrotation Xrotation Yrotation
                  End Site
                  {
                    OFFSET -1.69225 -0.51767 -0.607171
                  }
                }
              }
            }
          }
        }
      }
      JOINT lCollar
      {
        OFFSET 2.68224 19.2634 -4.8768
        CHANNELS 3 Zrotation Xrotation Yrotation
        JOINT lShldr
        {
          OFFSET 8.77824 -1.95073 1.46304
          CHANNELS 3 Zrotation Xrotation Yrotation
          JOINT lForeArm
          {
            OFFSET 28.1742 -1.7115 0.48768
            CHANNELS 3 Zrotation Xrotation Yrotation
            JOINT lHand
            {
              OFFSET 22.5879 0.773209 7.07136
              CHANNELS 3 Zrotation Xrotation Yrotation
              JOINT lThumb1
              {
                OFFSET 1.2192 -0.487915 3.41376
                CHANNELS 3 Zrotation Xrotation Yrotation
                JOINT lThumb2
                {
                  OFFSET 3.37035 -0.52449 3.41376
                  CHANNELS 3 Zrotation Xrotation Yrotation
                  End Site
                  {
                    OFFSET 1.78271 -1.18214 1.43049
                  }
                }
              }
              JOINT lIndex1
              {
                OFFSET 7.75947 0.938293 5.60832
                CHANNELS 3 Zrotation Xrotation Yrotation
                JOINT lIndex2
                {
                  OFFSET 2.54057 -0.884171 1.56538
                  CHANNELS 3 Zrotation Xrotation Yrotation
                  End Site
                  {
                    OFFSET 1.62519 -0.234802 1.16502
                  }
                }
              }
              JOINT lMid1
              {
                OFFSET 8.24714 1.18213 3.41376
                CHANNELS 3 Zrotation Xrotation Yrotation
                JOINT lMid2
                {
                  OFFSET 3.10165 -0.590103 1.0647
                  CHANNELS 3 Zrotation Xrotation Yrotation
                  End Site
                  {
                    OFFSET 2.48547 -0.328903 0.83742
                  }
                }
              }
              JOINT lRing1
              {
                OFFSET 8.82822 0.546677 1.51678
                CHANNELS 3 Zrotation Xrotation Yrotation
                JOINT lRing2
                {
                  OFFSET 2.60934 -0.819778 -0.0198488
                  CHANNELS 3 Zrotation Xrotation Yrotation
                  End Site
                  {
                    OFFSET 2.33842 -0.294052 0.168128
                  }
                }
              }
              JOINT lPinky1
              {
                OFFSET 8.27202 -0.0477905 -0.4584
                CHANNELS 3 Zrotation Xrotation Yrotation
                JOINT lPinky2
                {
                  OFFSET 1.82734 -0.647385 -0.700984
                  CHANNELS 3 Zrotation Xrotation Yrotation
                  End Site
                  {
                    OFFSET 1.69225 -0.51767 -0.607171
                  }
                }
              }
            }
          }
        }
      }
    }
  }
  JOINT rButtock
  {
    OFFSET -8.77824 4.35084 1.2192
    CHANNELS 3 Zrotation Xrotation Yrotation
    JOINT rThigh
    {
      OFFSET 0 -1.70687 -2.19456
      CHANNELS 3 Zrotation Xrotation Yrotation
      JOINT rShin
      {
        OFFSET 0 -36.8199 0.73152
        CHANNELS 3 Zrotation Xrotation Yrotation
        JOINT rFoot
        {
          OFFSET 0.73152 -45.1104 -5.12064
          CHANNELS 3 Zrotation Xrotation Yrotation
          End Site
          {
            OFFSET -1.1221 -3.69964 12.103
          }
        }
      }
    }
  }
  JOINT lButtock
  {
    OFFSET 8.77824 4.35084 1.2192
    CHANNELS 3 Zrotation Xrotation Yrotation
    JOINT lThigh
    {
      OFFSET 0 -1.70687 -2.19456
      CHANNELS 3 Zrotation Xrotation Yrotation
      JOINT lShin
      {
        OFFSET 0 -36.8199 0.73152
        CHANNELS 3 Zrotation Xrotation Yrotation
        JOINT lFoot
        {
          OFFSET -0.73152 -45.1104 -5.12064
          CHANNELS 3 Zrotation Xrotation Yrotation
          End Site
          {
            OFFSET 1.1221 -3.69964 12.103
          }
        }
      }
    }
  }
}
MOTION
Frames:	5
Frame Time:	0.00833333
58.7092 78.751 -151.827 -183.764 24.7459 177.04 -9.44405 4.70012 3.40264 1.20332 -1.95558 0.943858 -3.51046 17.4865 4.64994 16.2198 -25.7739 13.494 -0.0 0.0 0.0 -0.0 0.0 0.0 5.17689e-14 1.2684e-13 -5.61915e-13 68.1622 -0.175566 -29.8061 -10.3934 -4.37388 18.5584 0.0141523 -2.99036 -0.41917 -1.44454e-09 -4.27646e-09 -1.82443e-09 -2.4915e-09 -7.39487e-09 -3.15664e-09 -1.44453e-09 -4.27645e-09 -1.82444e-09 7.73091 5.47488 0.417314 -1.44454e-09 -4.27645e-09 -1.82444e-09 2.90554 0.965183 0.102902 -1.44453e-09 -4.27646e-09 -1.82443e-09 10.2786 0.731801 0.0259123 -1.44454e-09 -4.27646e-09 -1.82443e-09 2.22167 -0.733487 -0.20892 5.15931e-14 1.26857e-13 -5.62067e-13 -50.4865 9.21954 10.4922 10.5983 -4.4466 -19.0622 0.111192 -9.43659 1.33867 -4.33864e-10 1.29612e-09 -2.28911e-09 -7.33806e-10 2.26621e-09 -3.96312e-09 -4.33869e-10 1.29612e-09 -2.2891e-09 -7.73091 5.47488 -0.417314 -4.33863e-10 1.29612e-09 -2.28911e-09 -2.90554 0.965183 -0.102902 -4.3387e-10 1.29612e-09 -2.28911e-09 -10.2786 0.731801 -0.0259123 -4.3386e-10 1.29612e-09 -2.28912e-09 -2.22167 -0.733487 0.20892 -2.03217e-16 0.0 -3.88251e-19 -12.471 -8.21185 -9.8044 51.606 81.9046 13.7503 -169.945 -21.1434 71.953 2.03217e-16 0.0 3.88251e-19 -1.35496 -22.988 10.7652 0.317858 35.1817 -0.375632 0.437542 4.7884 -22.4454
58.9811 79.1453 -153.619 -183.313 25.1928 177.33 -9.08045 4.50219 3.50336 0.781666 -2.21124 0.999858 -3.57328 17.8769 4.70477 16.4651 -25.0171 13.5898 -0.0 0.0 0.0 -0.0 0.0 0.0 4.50315e-14 1.05472e-13 -6.47765e-13 69.4295 0.877615 -29.1646 -10.2868 -4.30543 18.361 0.0140329 -0.32071 -0.0444329 -1.76517e-09 -6.36234e-09 -2.30009e-09 -3.04666e-09 -1.10078e-08 -3.97794e-09 -1.76517e-09 -6.36234e-09 -2.30009e-09 7.73091 5.47488 0.417314 -1.76517e-09 -6.36234e-09 -2.30009e-09 2.90554 0.965183 0.102902 -1.76516e-09 -6.36234e-09 -2.30009e-09 10.2786 0.731801 0.0259123 -1.76517e-09 -6.36234e-09 -2.30009e-09 2.22167 -0.733487 -0.20892 4.48768e-14 1.05493e-13 -6.47981e-13 -50.5409 10.8991 9.54458 10.9313 -4.65699 -19.7018 0.0961943 -8.75117 1.23993 -5.41578e-10 1.07267e-09 -3.85321e-09 -9.11e-10 1.89109e-09 -6.6697e-09 -5.41582e-10 1.07267e-09 -3.85321e-09 -7.73091 5.47488 -0.417314 -5.41578e-10 1.07267e-09 -3.85321e-09 -2.90554 0.965183 -0.102902 -5.41585e-10 1.07267e-09 -3.85321e-09 -10.2786 0.731801 -0.0259123 -5.41576e-10 1.07267e-09 -3.85322e-09 -2.22167 -0.733487 0.20892 -2.03217e-16 0.0 -3.88251e-19 -10.8114 -10.7769 -7.63255 33.7395 80.7601 16.15 -173.177 -22.5848 53.2077 2.03217e-16 0.0 3.88251e-19 -1.97175 -21.1952 10.7862 0.285633 34.9966 -0.437055 0.718568 5.38066 -23.0116
59.0709 79.9135 -155.581 -183.681 25.2535 176.944 -8.68768 4.35292 3.32236 0.611338 -2.30397 0.969587 -3.69818 18.2694 4.79197 16.45 -24.497 13.6875 -0.0 0.0 0.0 -0.0 0.0 0.0 3.34357e-14 7.63224e-14 -6.23339e-13 70.805 2.39137 -28.3218 -10.4474 -4.41774 18.6432 -0.00139602 1.06681 0.149949 -1.78367e-09 -6.97389e-09 -2.22724e-09 -3.08044e-09 -1.20681e-08 -3.8506e-09 -1.78367e-09 -6.97388e-09 -2.22724e-09 7.73091 5.47488 0.417314 -1.78367e-09 -6.97389e-09 -2.22724e-09 2.90554 0.965183 0.102902 -1.78366e-09 -6.97389e-09 -2.22724e-09 10.2786 0.731801 0.0259123 -1.78367e-09 -6.97389e-09 -2.22724e-09 2.22167 -0.733487 -0.20892 3.33083e-14 7.6343e-14 -6.23587e-13 -51.1806 13.0849 8.65872 11.7058 -5.24444 -21.0419 0.0927041 -8.65221 1.22541 -6.27469e-10 8.42551e-10 -4.45168e-09 -1.05698e-09 1.49504e-09 -7.70544e-09 -6.27474e-10 8.42548e-10 -4.45167e-09 -7.73091 5.47488 -0.417314 -6.2747e-10 8.42547e-10 -4.45168e-09 -2.90554 0.965183 -0.102902 -6.27477e-10 8.42548e-10 -4.45168e-09 -10.2786 0.731801 -0.0259123 -6.27469e-10 8.42549e-10 -4.45169e-09 -2.22167 -0.733487 0.20892 -2.03217e-16 0.0 -3.88251e-19 -9.16953 -12.991 -5.78995 19.8235 79.4076 21.5398 -173.301 -18.5949 42.3219 2.03217e-16 0.0 3.88251e-19 -2.46046 -19.6392 10.6938 0.265085 34.8575 -0.482515 1.10289 6.29479 -22.2671
59.1124 81.0852 -157.54 -183.957 24.8951 176.575 -8.30113 4.25135 2.72158 0.822149 -2.16531 0.811784 -3.93864 18.6832 4.95331 16.0756 -24.3016 13.8378 -0.0 0.0 0.0 -0.0 0.0 0.0 1.14859e-14 3.08871e-14 -4.05073e-13 72.3185 4.70656 -27.1813 -10.9819 -4.77905 19.625 -0.00209975 0.651632 0.0912994 -1.2899e-09 -5.15857e-09 -1.21104e-09 -2.23049e-09 -8.92691e-09 -2.09142e-09 -1.28989e-09 -5.15856e-09 -1.21104e-09 7.73091 5.47488 0.417314 -1.2899e-09 -5.15857e-09 -1.21104e-09 2.90554 0.965183 0.102902 -1.28989e-09 -5.15857e-09 -1.21104e-09 10.2786 0.731801 0.0259123 -1.28989e-09 -5.15857e-09 -1.21104e-09 2.22167 -0.733487 -0.20892 1.13975e-14 3.09031e-14 -4.05307e-13 -52.6714 16.0349 7.93157 13.0266 -6.28784 -23.4407 0.106114 -9.40949 1.33388 -6.96267e-10 5.4039e-10 -3.52483e-09 -1.18379e-09 9.59315e-10 -6.10195e-09 -6.96272e-10 5.40387e-10 -3.52482e-09 -7.73091 5.47488 -0.417314 -6.96267e-10 5.40386e-10 -3.52483e-09 -2.90554 0.965183 -0.102902 -6.96274e-10 5.40387e-10 -3.52483e-09 -10.2786 0.731801 -0.0259123 -6.96267e-10 5.40389e-10 -3.52484e-09 -2.22167 -0.733487 0.20892 -2.03217e-16 0.0 -3.88251e-19 -7.67696 -14.7904 -4.34865 13.718 77.402 28.9448 -171.887 -15.7809 43.5064 2.03217e-16 0.0 3.88251e-19 -2.83082 -18.3367 10.491 0.262633 34.8146 -0.509167 1.54879 7.74873 -19.4987
59.1778 82.559 -159.448 -183.776 24.2105 176.462 -7.82834 4.15377 1.8421 1.24386 -1.83297 0.568489 -4.24066 19.1121 5.17881 15.3875 -24.2346 14.0224 -0.0 0.0 0.0 -0.0 0.0 0.0 -1.86866e-14 -2.90514e-14 -4.88513e-14 73.89 7.62674 -25.7885 -11.7518 -5.30171 21.0903 0.00069458 -0.89532 -0.126205 -4.3739e-10 -1.72068e-09 4.58475e-10 -7.61862e-10 -2.97697e-09 7.98035e-10 -4.37386e-10 -1.72068e-09 4.58465e-10 7.73091 5.47488 0.417314 -4.37389e-10 -1.72068e-09 4.58469e-10 2.90554 0.965183 0.102902 -4.3738e-10 -1.72068e-09 4.58469e-10 10.2786 0.731801 0.0259123 -4.37387e-10 -1.72068e-09 4.58472e-10 2.22167 -0.733487 -0.20892 -1.87235e-14 -2.90435e-14 -4.90408e-14 -54.8548 19.514 7.31663 14.6617 -7.61665 -26.6924 0.138996 -10.7887 1.53352 -7.40078e-10 1.48004e-10 -1.59656e-09 -1.27441e-09 2.57257e-10 -2.76555e-09 -7.40085e-10 1.48001e-10 -1.59655e-09 -7.73091 5.47488 -0.417314 -7.40078e-10 1.48e-10 -1.59657e-09 -2.90554 0.965183 -0.102902 -7.40083e-10 1.48e-10 -1.59657e-09 -10.2786 0.731801 -0.0259123 -7.40077e-10 1.48003e-10 -1.59657e-09 -2.22167 -0.733487 0.20892 -2.03217e-16 0.0 -3.88251e-19 -6.16057 -16.3822 -3.08798 13.0289 74.707 35.988 -170.541 -14.115 50.481 2.03217e-16 0.0 3.88251e-19 -3.08121 -16.9537 10.1428 0.25643 34.4292 -0.505347 1.83062 9.65064 -14.9949
